<mxfile host="app.diagrams.net" modified="2023-05-19T09:40:00.069Z" agent="Mozilla/5.0 (Macintosh; Intel Mac OS X 10_15_7) AppleWebKit/605.1.15 (KHTML, like Gecko) Version/16.2 Safari/605.1.15" etag="9hL7vyg7KtO7guc_GAlW" version="21.3.2" type="device">
  <diagram name="Page-1" id="82e54ff1-d628-8f03-85c4-9753963a91cd">
    <mxGraphModel dx="2534" dy="855" grid="1" gridSize="10" guides="1" tooltips="1" connect="1" arrows="1" fold="1" page="1" pageScale="1" pageWidth="1100" pageHeight="850" background="none" math="0" shadow="0">
      <root>
        <mxCell id="0" />
        <mxCell id="1" parent="0" />
        <mxCell id="4ec97bd9e5d20128-1" value="" style="line;strokeWidth=2;html=1;fillColor=none;fontSize=28;fontColor=#004D99;strokeColor=#004D99;" parent="1" vertex="1">
          <mxGeometry x="40" y="400" width="1220" height="10" as="geometry" />
        </mxCell>
        <mxCell id="4ec97bd9e5d20128-5" value="Stage 1" style="shape=offPageConnector;whiteSpace=wrap;html=1;fillColor=#0075E8;fontSize=15;fontColor=#FFFFFF;size=0.5093750000000015;verticalAlign=top;strokeColor=none;" parent="1" vertex="1">
          <mxGeometry x="120" y="340" width="160" height="40" as="geometry" />
        </mxCell>
        <mxCell id="4ec97bd9e5d20128-6" value="&lt;span&gt;Stage 3&lt;/span&gt;" style="shape=offPageConnector;whiteSpace=wrap;html=1;fillColor=#0075E8;fontSize=15;fontColor=#FFFFFF;size=0.5093750000000015;verticalAlign=top;strokeColor=none;" parent="1" vertex="1">
          <mxGeometry x="573" y="340" width="160" height="40" as="geometry" />
        </mxCell>
        <mxCell id="4ec97bd9e5d20128-7" value="&lt;span&gt;Stage 2&lt;/span&gt;" style="shape=offPageConnector;whiteSpace=wrap;html=1;fillColor=#0075E8;fontSize=15;fontColor=#FFFFFF;size=0.4178571428571445;flipV=1;verticalAlign=bottom;strokeColor=none;spacingBottom=4;" parent="1" vertex="1">
          <mxGeometry x="347" y="425" width="160" height="35" as="geometry" />
        </mxCell>
        <mxCell id="4ec97bd9e5d20128-8" value="&lt;span&gt;Stage 4&lt;/span&gt;" style="shape=offPageConnector;whiteSpace=wrap;html=1;fillColor=#0075E8;fontSize=15;fontColor=#FFFFFF;size=0.4178571428571445;flipV=1;verticalAlign=bottom;strokeColor=none;spacingBottom=4;" parent="1" vertex="1">
          <mxGeometry x="800" y="425" width="160" height="35" as="geometry" />
        </mxCell>
        <mxCell id="4ec97bd9e5d20128-9" value="" style="ellipse;whiteSpace=wrap;html=1;fillColor=#61BAFF;fontSize=28;fontColor=#004D99;strokeWidth=3;strokeColor=#004D99;" parent="1" vertex="1">
          <mxGeometry x="190" y="395" width="20" height="20" as="geometry" />
        </mxCell>
        <mxCell id="4ec97bd9e5d20128-10" value="" style="ellipse;whiteSpace=wrap;html=1;fillColor=#61BAFF;fontSize=28;fontColor=#004D99;strokeWidth=3;strokeColor=#004D99;" parent="1" vertex="1">
          <mxGeometry x="417" y="395" width="20" height="20" as="geometry" />
        </mxCell>
        <mxCell id="4ec97bd9e5d20128-11" value="" style="ellipse;whiteSpace=wrap;html=1;fillColor=#61BAFF;fontSize=28;fontColor=#004D99;strokeWidth=3;strokeColor=#004D99;" parent="1" vertex="1">
          <mxGeometry x="643" y="395" width="20" height="20" as="geometry" />
        </mxCell>
        <mxCell id="4ec97bd9e5d20128-13" value="" style="ellipse;whiteSpace=wrap;html=1;fillColor=#61BAFF;fontSize=28;fontColor=#004D99;strokeWidth=3;strokeColor=#004D99;" parent="1" vertex="1">
          <mxGeometry x="870" y="395" width="20" height="20" as="geometry" />
        </mxCell>
        <mxCell id="4ec97bd9e5d20128-14" value="&lt;h1&gt;&lt;font style=&quot;font-size: 15px;&quot;&gt;Loại bỏ HTML&lt;/font&gt;&lt;/h1&gt;&lt;p style=&quot;text-align: left;&quot;&gt;Nếu trong text chứa cấu phần HTML khi lấy thông tin title từ hàm request thì sẽ loại bỏ cấu phần này&lt;/p&gt;" style="text;html=1;spacing=5;spacingTop=-20;whiteSpace=wrap;overflow=hidden;strokeColor=none;strokeWidth=3;fillColor=#E6E6E6;fontSize=13;fontColor=#000000;align=center;rounded=1;" parent="1" vertex="1">
          <mxGeometry x="93" y="430" width="215" height="120" as="geometry" />
        </mxCell>
        <mxCell id="4ec97bd9e5d20128-16" value="&lt;h1&gt;&lt;font style=&quot;font-size: 15px;&quot;&gt;Chuẩn hoá unicode&amp;nbsp;&lt;/font&gt;&lt;/h1&gt;&lt;p style=&quot;text-align: left;&quot;&gt;Chuẩn hoá mã Unicode tổ hợp về mã Unicode dựng sẵn. Việc chuẩn hoá unicode giúp những thành phần mắt người nhìn và máy nhìn sẽ giống nhau&amp;nbsp;&lt;/p&gt;" style="text;html=1;spacing=5;spacingTop=-20;whiteSpace=wrap;overflow=hidden;strokeColor=none;strokeWidth=3;fillColor=#E6E6E6;fontSize=13;fontColor=#000000;align=center;rounded=1;" parent="1" vertex="1">
          <mxGeometry x="319" y="230" width="215" height="140" as="geometry" />
        </mxCell>
        <mxCell id="4ec97bd9e5d20128-17" value="&lt;h1&gt;&lt;font style=&quot;font-size: 15px;&quot;&gt;Chuẩn hoá định dạng&lt;/font&gt;&lt;/h1&gt;&lt;p style=&quot;text-align: left; line-height: 50%;&quot;&gt;- Convert về dạng lowcase&lt;/p&gt;&lt;p style=&quot;text-align: left; line-height: 50%;&quot;&gt;- Xoá bỏ ký tự đặc biệt&lt;/p&gt;&lt;p style=&quot;text-align: left; line-height: 50%;&quot;&gt;- Xoá nhiều khoảng trắng nếu có&lt;/p&gt;" style="text;html=1;spacing=5;spacingTop=-20;whiteSpace=wrap;overflow=hidden;strokeColor=none;strokeWidth=3;fillColor=#E6E6E6;fontSize=13;fontColor=#000000;align=center;rounded=1;" parent="1" vertex="1">
          <mxGeometry x="545" y="430" width="215" height="120" as="geometry" />
        </mxCell>
        <mxCell id="4ec97bd9e5d20128-18" value="&lt;h1&gt;&lt;font style=&quot;font-size: 15px;&quot;&gt;Tách từ tiếng việt&lt;/font&gt;&lt;/h1&gt;&lt;p style=&quot;text-align: left;&quot;&gt;Chuẩn hoá 1 từ ghép (được nối bằng nhiều từ đơn cách nhau bởi khoảng trắng) có định dạng giống 1 từ đơn.&amp;nbsp;&lt;/p&gt;" style="text;html=1;spacing=5;spacingTop=-20;whiteSpace=wrap;overflow=hidden;strokeColor=none;strokeWidth=3;fillColor=#E6E6E6;fontSize=13;fontColor=#000000;align=center;rounded=1;" parent="1" vertex="1">
          <mxGeometry x="773" y="250" width="215" height="120" as="geometry" />
        </mxCell>
        <mxCell id="7z4ZA3ZwPVsXslvGEEqz-1" value="&lt;span&gt;Stage 5&lt;/span&gt;" style="shape=offPageConnector;whiteSpace=wrap;html=1;fillColor=#0075E8;fontSize=15;fontColor=#FFFFFF;size=0.5093750000000015;verticalAlign=top;strokeColor=none;" vertex="1" parent="1">
          <mxGeometry x="1028" y="337.5" width="160" height="40" as="geometry" />
        </mxCell>
        <mxCell id="7z4ZA3ZwPVsXslvGEEqz-2" value="" style="ellipse;whiteSpace=wrap;html=1;fillColor=#61BAFF;fontSize=28;fontColor=#004D99;strokeWidth=3;strokeColor=#004D99;" vertex="1" parent="1">
          <mxGeometry x="1098" y="392.5" width="20" height="20" as="geometry" />
        </mxCell>
        <mxCell id="7z4ZA3ZwPVsXslvGEEqz-3" value="&lt;h1&gt;&lt;font style=&quot;font-size: 15px;&quot;&gt;Loại bỏ stopwords&lt;/font&gt;&lt;/h1&gt;&lt;p style=&quot;text-align: left;&quot;&gt;Stopwords thường là các từ không có tác dụng trong việc phân loại văn bản, loại bỏ giúp giảm không gian vector của vocabulary.&lt;/p&gt;" style="text;html=1;spacing=5;spacingTop=-20;whiteSpace=wrap;overflow=hidden;strokeColor=none;strokeWidth=3;fillColor=#E6E6E6;fontSize=13;fontColor=#000000;align=center;rounded=1;" vertex="1" parent="1">
          <mxGeometry x="1000" y="427.5" width="215" height="120" as="geometry" />
        </mxCell>
        <mxCell id="7z4ZA3ZwPVsXslvGEEqz-4" value="Raw text" style="text;html=1;strokeColor=none;fillColor=none;align=center;verticalAlign=middle;whiteSpace=wrap;rounded=0;fontStyle=1" vertex="1" parent="1">
          <mxGeometry x="10" y="295" width="80" height="30" as="geometry" />
        </mxCell>
        <mxCell id="7z4ZA3ZwPVsXslvGEEqz-5" value="Preprocessed text" style="text;html=1;strokeColor=none;fillColor=none;align=center;verticalAlign=middle;whiteSpace=wrap;rounded=0;fontStyle=1" vertex="1" parent="1">
          <mxGeometry x="1150" y="377.5" width="118" height="30" as="geometry" />
        </mxCell>
        <mxCell id="7z4ZA3ZwPVsXslvGEEqz-6" value="&quot;Cổ phiếu ABC&quot; nằm trong top tăng trưởng" style="shape=note;whiteSpace=wrap;html=1;backgroundOutline=1;darkOpacity=0.05;size=14;" vertex="1" parent="1">
          <mxGeometry x="140" y="260" width="120" height="77.5" as="geometry" />
        </mxCell>
        <mxCell id="7z4ZA3ZwPVsXslvGEEqz-7" value="&quot;Cổ phiếu ABC&quot; nằm trong top tăng trưởng" style="shape=note;whiteSpace=wrap;html=1;backgroundOutline=1;darkOpacity=0.05;size=14;" vertex="1" parent="1">
          <mxGeometry x="366.5" y="460" width="120" height="77.5" as="geometry" />
        </mxCell>
        <mxCell id="7z4ZA3ZwPVsXslvGEEqz-8" value="&amp;lt;a&amp;gt; &quot;Cổ phiếu ABC&quot; nằm trong top tăng trưởng &amp;lt;a&amp;gt;" style="shape=note;whiteSpace=wrap;html=1;backgroundOutline=1;darkOpacity=0.05;size=14;" vertex="1" parent="1">
          <mxGeometry x="-10" y="321.25" width="120" height="77.5" as="geometry" />
        </mxCell>
        <mxCell id="7z4ZA3ZwPVsXslvGEEqz-9" value="cổ phiếu abc nằm trong top tăng trưởng" style="shape=note;whiteSpace=wrap;html=1;backgroundOutline=1;darkOpacity=0.05;size=14;" vertex="1" parent="1">
          <mxGeometry x="593" y="262.5" width="120" height="77.5" as="geometry" />
        </mxCell>
        <mxCell id="7z4ZA3ZwPVsXslvGEEqz-10" value="cổ_phiếu abc nằm trong top tăng_trưởng" style="shape=note;whiteSpace=wrap;html=1;backgroundOutline=1;darkOpacity=0.05;size=14;" vertex="1" parent="1">
          <mxGeometry x="820" y="460" width="120" height="77.5" as="geometry" />
        </mxCell>
        <mxCell id="7z4ZA3ZwPVsXslvGEEqz-11" value="cổ_phiếu abc top tăng_trưởng" style="shape=note;whiteSpace=wrap;html=1;backgroundOutline=1;darkOpacity=0.05;size=14;" vertex="1" parent="1">
          <mxGeometry x="1048" y="260" width="120" height="77.5" as="geometry" />
        </mxCell>
      </root>
    </mxGraphModel>
  </diagram>
</mxfile>
